<svg width="16" height="16" xmlns="http://www.w3.org/2000/svg">
  <path d="m7.048 8-4.326 4.373-1.249-1.262L3.671 8.89H0V7.11h3.671L1.473 4.89l1.249-1.262L7.048 8" style="fill:#1e88e5;stroke-width:1;fill-opacity:1"/>
  <path style="fill:#8bc34a;fill-opacity:1;stroke-width:1" d="M8.967-.027c-2.434 0-4.578.627-5.84 1.576l1.264 1.267c.83-.512 2.383-1.066 4.576-1.066 3.403 0 5.275 1.333 5.275 1.777 0 .445-1.872 1.778-5.275 1.778-.883 0-1.66-.09-2.326-.23l1.996 2.003c.11.003.22.006.33.006 2.101 0 3.983-.471 5.275-1.209v2.498C13.1 9.217 11.095 9.75 8.967 9.75c-.373 0-.742-.02-1.104-.053l-1.56 1.573c.838.165 1.733.257 2.664.257 2.005 0 3.86-.4 5.275-1.093v1.982c0 .444-1.872 1.78-5.275 1.78-2.155 0-3.694-.536-4.535-1.042l-1.26 1.268c1.266.934 3.391 1.55 5.795 1.55 3.877 0 7.033-1.592 7.033-3.556V3.527c0-1.964-3.147-3.554-7.033-3.554z"/>
</svg>
