<svg width="16" height="16" xmlns="http://www.w3.org/2000/svg">
  <path style="fill:#90a4ae" d="M7.201 0C6.013 0 4.998.179 4.154.537c-.836.359-1.481.883-1.931 1.572a3.974 3.974 0 0 0-.664 2.205c0 1.224.474 2.261 1.423 3.112.675.604 1.85 1.114 3.524 1.53 1.3.323 2.134.546 2.5.673.084.03.162.062.238.094a5 5 0 0 1 3.152-1.674 4.403 4.403 0 0 0-1.154-.856c-.724-.386-1.846-.76-3.365-1.119-1.519-.358-2.475-.703-2.87-1.033-.309-.26-.464-.572-.464-.937 0-.401.166-.722.496-.961.513-.373 1.224-.559 2.13-.559.88 0 1.538.176 1.974.527.443.345.731.915.865 1.71l3.12-.137c-.048-1.42-.565-2.558-1.55-3.409C10.601.425 9.142 0 7.201 0zM4.037 10.4 1 10.695c.204 1.73.83 3.048 1.877 3.955 1.048.9 2.55 1.35 4.504 1.35.555 0 1.07-.034 1.55-.098a5 5 0 0 1-.904-2.57c-.194.02-.397.031-.615.031-.95 0-1.705-.238-2.267-.717-.556-.478-.925-1.226-1.108-2.246z"/>
  <path d="M15 11h-2.69l1.99 2-1.99 2H15v1h-4v-1l2-2-2-2v-1h4z" style="stroke-width:.999998;fill:#ff7043;fill-opacity:1"/>
</svg>
