<svg width="16" height="16" xmlns="http://www.w3.org/2000/svg">
  <path style="color:#000;fill:#369;fill-opacity:1;stroke-width:.999999;-inkscape-stroke:none" d="M2.75.75c-1.097 0-2 .903-2 2 0 .833.52 1.552 1.25 1.852v6.796A2.01 2.01 0 0 0 .75 13.25c0 1.097.903 2 2 2A2.01 2.01 0 0 0 4.602 14h3.511A5 5 0 0 1 8 13a5 5 0 0 1 .035-.5H4.602A2.023 2.023 0 0 0 3.5 11.398V4.602A2.023 2.023 0 0 0 4.602 3.5h6.796c.204.498.604.898 1.102 1.102v3.433A5 5 0 0 1 13 8a5 5 0 0 1 1 .102v-3.5a2.01 2.01 0 0 0 1.25-1.852c0-1.097-.903-2-2-2A2.01 2.01 0 0 0 11.398 2H4.602A2.01 2.01 0 0 0 2.75.75Zm0 1.2c.449 0 .8.351.8.8 0 .449-.351.8-.8.8a.792.792 0 0 1-.8-.8c0-.449.351-.8.8-.8zm10.5 0c.449 0 .8.351.8.8 0 .449-.351.8-.8.8a.792.792 0 0 1-.8-.8c0-.449.351-.8.8-.8zm-10.5 10.5c.449 0 .8.351.8.8 0 .449-.351.8-.8.8a.792.792 0 0 1-.8-.8c0-.449.351-.8.8-.8z"/>
  <path d="M11.754 15.172 9.35 12.71l1.014-.952 1.39 1.305 3.14-2.946 1.014 1.157-4.154 3.898" style="stroke-width:1;fill:#32cd32"/>
</svg>
